PathFileType	4	(X/Y/Z)	 0.16m3min.trc
DataRate	CameraRate	NumFrames	NumMarkers	Units	OrigDataRate	OrigDataStartFrame	OrigNumFrames
200	200	9	43	m	200	488	975
Frame#	Time	C7			LSH			RSH			MAN			RASI			LASI			HIPR			HIPL			RPSI			LPSI			COX			RTHI1			RTHI2			RTHI3			RTHI4			RLKN			RMKN			RSHA1			RSHA2			RSHA3			RSHA4			RLMAL			RMMAL			RHEEL			RMET5			RMET1			RTOE			LTHI1			LTHI2			LTHI3			LTHI4			LLKN			LMKN			LSHA1			LSHA2			LSHA3			LSHA4			LLMAL			LMMAL			LHEEL			LMET5			LMET1			LTOE			
		X1	Y1	Z1	X2	Y2	Z2	X3	Y3	Z3	X4	Y4	Z4	X5	Y5	Z5	X6	Y6	Z6	X7	Y7	Z7	X8	Y8	Z8	X9	Y9	Z9	X10	Y10	Z10	X11	Y11	Z11	X12	Y12	Z12	X13	Y13	Z13	X14	Y14	Z14	X15	Y15	Z15	X16	Y16	Z16	X17	Y17	Z17	X18	Y18	Z18	X19	Y19	Z19	X20	Y20	Z20	X21	Y21	Z21	X22	Y22	Z22	X23	Y23	Z23	X24	Y24	Z24	X25	Y25	Z25	X26	Y26	Z26	X27	Y27	Z27	X28	Y28	Z28	X29	Y29	Z29	X30	Y30	Z30	X31	Y31	Z31	X32	Y32	Z32	X33	Y33	Z33	X34	Y34	Z34	X35	Y35	Z35	X36	Y36	Z36	X37	Y37	Z37	X38	Y38	Z38	X39	Y39	Z39	X40	Y40	Z40	X41	Y41	Z41	X42	Y42	Z42	X43	Y43	Z43	
488	2.4400	-0.295331	1.492236	-0.559503	-0.202746	1.482930	-0.708368	-0.226218	1.471460	-0.403401	-0.175931	1.436460	-0.552757	-0.146089	1.016471	-0.450096	-0.160613	1.011274	-0.681777	-0.191563	1.083201	-0.423674	-0.196709	1.078027	-0.699168	-0.319503	1.053079	-0.520714	-0.321105	1.046445	-0.592897	-0.316946	1.057403	-0.554984	-0.254873	0.836373	-0.379743	-0.240539	0.778658	-0.371584	-0.177438	0.791309	-0.364494	-0.183674	0.852402	-0.371567	-0.215116	0.576786	-0.378510	-0.194299	0.557062	-0.497857	-0.295471	0.407237	-0.368896	-0.302672	0.364231	-0.377503	-0.242595	0.358411	-0.361521	-0.243610	0.398823	-0.355684	-0.286748	0.226469	-0.375345	-0.253042	0.225533	-0.448165	-0.331702	0.216379	-0.420942	-0.203622	0.140897	-0.342222	-0.163127	0.137617	-0.403999	-0.145695	0.130641	-0.395323	-0.262959	0.845431	-0.737655	-0.241530	0.788577	-0.748179	-0.178810	0.806369	-0.751421	-0.192793	0.864036	-0.742456	-0.225999	0.571077	-0.739049	-0.196393	0.564830	-0.620787	-0.313918	0.414108	-0.740635	-0.318935	0.374768	-0.736175	-0.259795	0.367638	-0.750001	-0.259860	0.409857	-0.757630	-0.303318	0.235548	-0.735222	-0.285838	0.236467	-0.659444	-0.357673	0.237345	-0.690949	-0.244181	0.128356	-0.745828	-0.209740	0.120322	-0.678731	-0.196182	0.110327	-0.683320	
489	2.4450	-0.294870	1.488713	-0.559333	-0.202490	1.479136	-0.708365	-0.225799	1.467699	-0.403209	-0.175584	1.432837	-0.552654	-0.146030	1.012980	-0.450165	-0.160680	1.007745	-0.681687	-0.191444	1.079711	-0.423641	-0.196798	1.074597	-0.699059	-0.319286	1.049600	-0.520555	-0.320901	1.043097	-0.592809	-0.316899	1.054120	-0.554887	-0.254173	0.832666	-0.379583	-0.239529	0.775040	-0.371316	-0.176476	0.788042	-0.364408	-0.183058	0.849083	-0.371614	-0.213259	0.573293	-0.377883	-0.192854	0.553501	-0.497156	-0.294709	0.404289	-0.368051	-0.302250	0.361379	-0.376582	-0.242195	0.355050	-0.360918	-0.242912	0.395490	-0.354998	-0.287360	0.223585	-0.374672	-0.253824	0.222386	-0.447590	-0.332471	0.213463	-0.420115	-0.204291	0.138150	-0.341563	-0.163925	0.134683	-0.403481	-0.146487	0.127699	-0.394825	-0.262606	0.841600	-0.737829	-0.241011	0.784795	-0.748253	-0.178322	0.802719	-0.751255	-0.192460	0.860379	-0.742362	-0.224802	0.567478	-0.739270	-0.195000	0.561310	-0.621070	-0.313444	0.411081	-0.740718	-0.318765	0.371860	-0.736259	-0.259614	0.364259	-0.749978	-0.259397	0.406462	-0.757653	-0.303920	0.232398	-0.735105	-0.286710	0.233428	-0.659266	-0.358536	0.234161	-0.691103	-0.244486	0.125427	-0.745267	-0.210301	0.117732	-0.678025	-0.196665	0.107879	-0.682616	
490	2.4500	-0.294414	1.484932	-0.559162	-0.202260	1.475089	-0.708375	-0.225372	1.463670	-0.402990	-0.175245	1.428944	-0.552549	-0.145988	1.009266	-0.450205	-0.160734	1.003968	-0.681568	-0.191355	1.075997	-0.423612	-0.196862	1.070909	-0.698945	-0.319039	1.045835	-0.520428	-0.320735	1.039575	-0.592743	-0.316836	1.050591	-0.554812	-0.253478	0.828735	-0.379447	-0.238524	0.771211	-0.371073	-0.175525	0.784563	-0.364318	-0.182450	0.845545	-0.371658	-0.211376	0.569582	-0.377254	-0.191414	0.549707	-0.496471	-0.293946	0.401128	-0.367195	-0.301834	0.358318	-0.375664	-0.241791	0.351477	-0.360310	-0.242206	0.391941	-0.354314	-0.287949	0.220486	-0.373993	-0.254642	0.219022	-0.447020	-0.333291	0.210380	-0.419265	-0.204961	0.135169	-0.340959	-0.164783	0.131466	-0.402982	-0.147337	0.124551	-0.394352	-0.262270	0.837555	-0.737963	-0.240525	0.780795	-0.748298	-0.177866	0.798846	-0.751081	-0.192148	0.856491	-0.742250	-0.223661	0.563646	-0.739490	-0.193748	0.557593	-0.621315	-0.312988	0.407819	-0.740843	-0.318574	0.368703	-0.736369	-0.259445	0.360658	-0.750004	-0.258958	0.402844	-0.757710	-0.304465	0.228992	-0.735032	-0.287534	0.230136	-0.659126	-0.359376	0.230717	-0.691348	-0.244675	0.122268	-0.744742	-0.210771	0.114942	-0.677347	-0.197031	0.105230	-0.681938	
491	2.4550	-0.293966	1.480896	-0.558995	-0.202056	1.470799	-0.708401	-0.224936	1.459383	-0.402749	-0.174916	1.424782	-0.552446	-0.145964	1.005329	-0.450211	-0.160776	0.999937	-0.681418	-0.191300	1.072058	-0.423583	-0.196908	1.066953	-0.698828	-0.318779	1.041802	-0.520344	-0.320619	1.035861	-0.592692	-0.316759	1.046804	-0.554755	-0.252788	0.824580	-0.379332	-0.237518	0.767170	-0.370842	-0.174589	0.780871	-0.364225	-0.181847	0.841789	-0.371698	-0.209475	0.565657	-0.376624	-0.189973	0.545681	-0.495801	-0.293178	0.397765	-0.366335	-0.301420	0.355047	-0.374769	-0.241384	0.347687	-0.359705	-0.241491	0.388172	-0.353632	-0.288500	0.217142	-0.373306	-0.255465	0.215463	-0.446452	-0.334147	0.207125	-0.418402	-0.205640	0.131933	-0.340402	-0.165654	0.128035	-0.402559	-0.148208	0.121148	-0.393921	-0.261954	0.833301	-0.738048	-0.240078	0.776582	-0.748316	-0.177442	0.794750	-0.750901	-0.191856	0.852380	-0.742122	-0.222575	0.559587	-0.739708	-0.192646	0.553671	-0.621522	-0.312554	0.404293	-0.741014	-0.318379	0.365268	-0.736518	-0.259284	0.356823	-0.750075	-0.258544	0.398999	-0.757803	-0.304956	0.225321	-0.734996	-0.288298	0.226598	-0.659022	-0.360188	0.227008	-0.691662	-0.244763	0.118878	-0.744259	-0.211109	0.111928	-0.676704	-0.197272	0.102391	-0.681298	
492	2.4600	-0.293524	1.476604	-0.558837	-0.201871	1.466262	-0.708439	-0.224498	1.454842	-0.402497	-0.174596	1.420355	-0.552346	-0.145962	1.001163	-0.450181	-0.160811	0.995648	-0.681239	-0.191281	1.067893	-0.423552	-0.196928	1.062726	-0.698708	-0.318527	1.037512	-0.520306	-0.320554	1.031939	-0.592658	-0.316678	1.042755	-0.554716	-0.252101	0.820208	-0.379230	-0.236511	0.762918	-0.370617	-0.173659	0.776970	-0.364123	-0.181244	0.837814	-0.371729	-0.207553	0.561517	-0.375978	-0.188522	0.541434	-0.495147	-0.292400	0.394179	-0.365485	-0.300997	0.351569	-0.373892	-0.240958	0.343684	-0.359111	-0.240762	0.384187	-0.352958	-0.289026	0.213573	-0.372625	-0.256309	0.211701	-0.445877	-0.335006	0.203704	-0.417563	-0.206346	0.128408	-0.339896	-0.166558	0.124373	-0.402156	-0.149113	0.117505	-0.393557	-0.261657	0.828844	-0.738085	-0.239668	0.772158	-0.748304	-0.177050	0.790438	-0.750721	-0.191584	0.848047	-0.741977	-0.221555	0.555302	-0.739916	-0.191699	0.549519	-0.621690	-0.312148	0.400510	-0.741234	-0.318187	0.361554	-0.736716	-0.259128	0.352744	-0.750185	-0.258159	0.394920	-0.757943	-0.305402	0.221385	-0.734992	-0.288992	0.222804	-0.658946	-0.360937	0.223004	-0.691992	-0.244744	0.115245	-0.743813	-0.211367	0.108656	-0.676129	-0.197437	0.099271	-0.680692	
493	2.4650	-0.293093	1.472055	-0.558691	-0.201701	1.461488	-0.708489	-0.224060	1.450062	-0.402234	-0.174281	1.415660	-0.552253	-0.145982	0.996766	-0.450112	-0.160843	0.991101	-0.681035	-0.191300	1.063494	-0.423516	-0.196926	1.058216	-0.698587	-0.318293	1.032968	-0.520305	-0.320533	1.027791	-0.592646	-0.316606	1.038454	-0.554691	-0.251414	0.815626	-0.379124	-0.235505	0.758459	-0.370395	-0.172736	0.772861	-0.364018	-0.180636	0.833622	-0.371746	-0.205610	0.557167	-0.375317	-0.187067	0.536965	-0.494510	-0.291605	0.390371	-0.364649	-0.300545	0.347878	-0.373024	-0.240512	0.339474	-0.358521	-0.240017	0.379992	-0.352287	-0.289538	0.209794	-0.371969	-0.257153	0.207735	-0.445302	-0.335846	0.200115	-0.416734	-0.207076	0.124613	-0.339418	-0.167448	0.120486	-0.401794	-0.150025	0.113620	-0.393232	-0.261378	0.824181	-0.738072	-0.239293	0.767522	-0.748256	-0.176690	0.785913	-0.750538	-0.191329	0.843493	-0.741815	-0.220599	0.550789	-0.740116	-0.190900	0.545120	-0.621828	-0.311755	0.396443	-0.741499	-0.317997	0.357540	-0.736962	-0.258970	0.348413	-0.750324	-0.257798	0.390601	-0.758126	-0.305802	0.217182	-0.735011	-0.289614	0.218742	-0.658893	-0.361618	0.218711	-0.692320	-0.244657	0.111354	-0.743421	-0.211536	0.105120	-0.675634	-0.197502	0.095905	-0.680172	
494	2.4700	-0.292672	1.467254	-0.558559	-0.201543	1.456475	-0.708554	-0.223625	1.445047	-0.401967	-0.173973	1.410707	-0.552172	-0.146027	0.992131	-0.450003	-0.160871	0.986292	-0.680803	-0.191356	1.058861	-0.423470	-0.196899	1.053424	-0.698464	-0.318088	1.028173	-0.520332	-0.320543	1.023393	-0.592659	-0.316559	1.033910	-0.554682	-0.250731	0.810836	-0.379010	-0.234504	0.753791	-0.370166	-0.171822	0.768537	-0.363912	-0.180034	0.829216	-0.371749	-0.203645	0.552600	-0.374641	-0.185580	0.532292	-0.493892	-0.290783	0.386335	-0.363828	-0.300061	0.343957	-0.372185	-0.240041	0.335057	-0.357945	-0.239249	0.375583	-0.351625	-0.290024	0.205805	-0.371339	-0.257999	0.203575	-0.444739	-0.336657	0.196356	-0.415926	-0.207835	0.120517	-0.339018	-0.168405	0.116303	-0.401464	-0.150986	0.109475	-0.392922	-0.261116	0.819312	-0.738009	-0.238944	0.762689	-0.748171	-0.176357	0.781168	-0.750347	-0.191081	0.838714	-0.741634	-0.219696	0.546045	-0.740305	-0.190243	0.540464	-0.621941	-0.311373	0.392093	-0.741801	-0.317816	0.353222	-0.737261	-0.258804	0.343820	-0.750486	-0.257456	0.386026	-0.758342	-0.306162	0.212713	-0.735043	-0.290150	0.214408	-0.658859	-0.362215	0.214143	-0.692629	-0.244539	0.107227	-0.743123	-0.211632	0.101299	-0.675225	-0.197479	0.092230	-0.679740	
495	2.4750	-0.292262	1.462201	-0.558444	-0.201391	1.451234	-0.708635	-0.223200	1.439801	-0.401704	-0.173662	1.405513	-0.552101	-0.146099	0.987252	-0.449855	-0.160900	0.981214	-0.680544	-0.191449	1.053987	-0.423412	-0.196851	1.048353	-0.698341	-0.317918	1.023132	-0.520374	-0.320572	1.018729	-0.592697	-0.316545	1.029117	-0.554693	-0.250052	0.805828	-0.378881	-0.233505	0.748899	-0.369927	-0.170908	0.763988	-0.363789	-0.179437	0.824599	-0.371739	-0.201663	0.547813	-0.373958	-0.184060	0.527411	-0.493285	-0.289919	0.382077	-0.363023	-0.299536	0.339815	-0.371368	-0.239546	0.330431	-0.357392	-0.238447	0.370958	-0.350973	-0.290503	0.201597	-0.370728	-0.258839	0.199240	-0.444194	-0.337429	0.192412	-0.415130	-0.208643	0.116144	-0.338652	-0.169378	0.111884	-0.401202	-0.151959	0.105029	-0.392722	-0.260862	0.814238	-0.737898	-0.238618	0.757649	-0.748055	-0.176045	0.776200	-0.750148	-0.190841	0.833717	-0.741431	-0.218844	0.541068	-0.740481	-0.189711	0.535528	-0.622037	-0.310992	0.387429	-0.742124	-0.317635	0.348598	-0.737599	-0.258625	0.338954	-0.750656	-0.257115	0.381187	-0.758585	-0.306485	0.207979	-0.735083	-0.290601	0.209810	-0.658852	-0.362711	0.209311	-0.692891	-0.244424	0.102757	-0.742873	-0.211653	0.097135	-0.674912	-0.197410	0.088197	-0.679418	
496	2.4800	-0.291869	1.456892	-0.558345	-0.201237	1.445765	-0.708726	-0.222791	1.434329	-0.401453	-0.173347	1.400082	-0.552041	-0.146200	0.982126	-0.449669	-0.160927	0.975865	-0.680263	-0.191575	1.048873	-0.423340	-0.196777	1.043002	-0.698216	-0.317785	1.017841	-0.520422	-0.320610	1.013788	-0.592758	-0.316569	1.024075	-0.554719	-0.249380	0.800614	-0.378724	-0.232511	0.743792	-0.369674	-0.169985	0.759218	-0.363650	-0.178849	0.819770	-0.371712	-0.199653	0.542806	-0.373276	-0.182497	0.522329	-0.492689	-0.289006	0.377591	-0.362234	-0.298967	0.335458	-0.370569	-0.239014	0.325595	-0.356856	-0.237593	0.366113	-0.350352	-0.290995	0.197192	-0.370136	-0.259674	0.194717	-0.443673	-0.338167	0.188302	-0.414352	-0.209496	0.111462	-0.338352	-0.170406	0.107148	-0.400998	-0.152984	0.100296	-0.392617	-0.260614	0.808957	-0.737749	-0.238302	0.752396	-0.747907	-0.175749	0.771015	-0.749940	-0.190605	0.828495	-0.741200	-0.218035	0.535848	-0.740643	-0.189294	0.530303	-0.622124	-0.310601	0.382458	-0.742467	-0.317433	0.343662	-0.737955	-0.258423	0.333802	-0.750825	-0.256773	0.376069	-0.758844	-0.306769	0.202991	-0.735129	-0.290962	0.204933	-0.658875	-0.363098	0.204243	-0.693095	-0.244372	0.097926	-0.742689	-0.211668	0.092612	-0.674739	-0.197355	0.083754	-0.679226	
